<svg width="1566" height="566" viewBox="0 0 1566 566" fill="none" xmlns="http://www.w3.org/2000/svg">
<g opacity="0.06">
<path fill-rule="evenodd" clip-rule="evenodd" d="M112.695 0.913818V108.911H85.1042L52.0284 60.8167V108.911H18.4678V0.913818H46.4687L79.1344 49.015V0.913818H112.695ZM82.0452 57.307H81.247L44.9268 3.82462H21.3786V106H49.1176V52.318H49.7163L86.6351 106H109.784V3.82462H82.0452V57.307Z" fill="black"/>
<path fill-rule="evenodd" clip-rule="evenodd" d="M131.247 49.4518H0.00025177V46.541H131.247V49.4518Z" fill="black"/>
<path fill-rule="evenodd" clip-rule="evenodd" d="M131.247 78.2616H0V75.3508H131.247V78.2616Z" fill="black"/>
<path fill-rule="evenodd" clip-rule="evenodd" d="M112.695 457.473V565.47H85.1042L52.0284 517.376V565.47H18.4678V457.473H46.4687L79.1344 505.574V457.473H112.695ZM82.0452 513.866H81.247L44.9268 460.384H21.3786V562.559H49.1176V508.877H49.7163L86.6351 562.559H109.784V460.384H82.0452V513.866Z" fill="black"/>
<path fill-rule="evenodd" clip-rule="evenodd" d="M131.247 506.011H0.00025177V503.1H131.247V506.011Z" fill="black"/>
<path fill-rule="evenodd" clip-rule="evenodd" d="M131.247 534.821H0V531.91H131.247V534.821Z" fill="black"/>
<path fill-rule="evenodd" clip-rule="evenodd" d="M112.695 228.607V336.604H85.1042L52.0284 288.51V336.604H18.4678V228.607H46.4687L79.1344 276.708V228.607H112.695ZM82.0452 285H81.247L44.9268 231.517H21.3786V333.693H49.1176V280.011H49.7163L86.6351 333.693H109.784V231.517H82.0452V285Z" fill="black"/>
<path fill-rule="evenodd" clip-rule="evenodd" d="M131.247 277.145H0.00025177V274.234H131.247V277.145Z" fill="black"/>
<path fill-rule="evenodd" clip-rule="evenodd" d="M131.247 305.954H0V303.044H131.247V305.954Z" fill="black"/>
<path fill-rule="evenodd" clip-rule="evenodd" d="M112.695 114.76V222.757H85.1042L52.0284 174.663V222.757H18.4678V114.76H46.4687L79.1344 162.861V114.76H112.695ZM82.0452 171.153H81.247L44.9268 117.671H21.3786V219.846H49.1176V166.164H49.7163L86.6351 219.846H109.784V117.671H82.0452V171.153Z" fill="black"/>
<path fill-rule="evenodd" clip-rule="evenodd" d="M131.247 163.298H0.00025177V160.387H131.247V163.298Z" fill="black"/>
<path fill-rule="evenodd" clip-rule="evenodd" d="M131.247 192.108H0V189.198H131.247V192.108Z" fill="black"/>
<path fill-rule="evenodd" clip-rule="evenodd" d="M112.695 342.453V450.45H85.1042L52.0284 402.356V450.45H18.4678V342.453H46.4687L79.1344 390.554V342.453H112.695ZM82.0452 398.846H81.247L44.9268 345.364H21.3786V447.539H49.1176V393.857H49.7163L86.6351 447.539H109.784V345.364H82.0452V398.846Z" fill="black"/>
<path fill-rule="evenodd" clip-rule="evenodd" d="M131.247 390.991H0.00025177V388.08H131.247V390.991Z" fill="black"/>
<path fill-rule="evenodd" clip-rule="evenodd" d="M131.247 419.801H0V416.89H131.247V419.801Z" fill="black"/>
<path fill-rule="evenodd" clip-rule="evenodd" d="M895.536 0.913818V108.911H867.945L834.869 60.8167V108.911H801.308V0.913818H829.309L861.975 49.015V0.913818H895.536ZM864.886 57.307H864.087L827.767 3.82462H804.219V106H831.958V52.318H832.557L869.476 106H892.625V3.82462H864.886V57.307Z" fill="black"/>
<path fill-rule="evenodd" clip-rule="evenodd" d="M914.086 49.4518H782.84V46.541H914.086V49.4518Z" fill="black"/>
<path fill-rule="evenodd" clip-rule="evenodd" d="M914.085 78.2616H782.839V75.3508H914.085V78.2616Z" fill="black"/>
<path fill-rule="evenodd" clip-rule="evenodd" d="M895.536 457.473V565.47H867.945L834.869 517.376V565.47H801.308V457.473H829.309L861.975 505.574V457.473H895.536ZM864.886 513.866H864.087L827.767 460.384H804.219V562.559H831.958V508.877H832.557L869.476 562.559H892.625V460.384H864.886V513.866Z" fill="black"/>
<path fill-rule="evenodd" clip-rule="evenodd" d="M914.086 506.011H782.84V503.1H914.086V506.011Z" fill="black"/>
<path fill-rule="evenodd" clip-rule="evenodd" d="M914.085 534.821H782.839V531.91H914.085V534.821Z" fill="black"/>
<path fill-rule="evenodd" clip-rule="evenodd" d="M895.536 228.607V336.604H867.945L834.869 288.51V336.604H801.308V228.607H829.309L861.975 276.708V228.607H895.536ZM864.886 285H864.087L827.767 231.517H804.219V333.693H831.958V280.011H832.557L869.476 333.693H892.625V231.517H864.886V285Z" fill="black"/>
<path fill-rule="evenodd" clip-rule="evenodd" d="M914.086 277.145H782.84V274.234H914.086V277.145Z" fill="black"/>
<path fill-rule="evenodd" clip-rule="evenodd" d="M914.085 305.954H782.839V303.044H914.085V305.954Z" fill="black"/>
<path fill-rule="evenodd" clip-rule="evenodd" d="M895.536 114.76V222.757H867.945L834.869 174.663V222.757H801.308V114.76H829.309L861.975 162.861V114.76H895.536ZM864.886 171.153H864.087L827.767 117.671H804.219V219.846H831.958V166.164H832.557L869.476 219.846H892.625V117.671H864.886V171.153Z" fill="black"/>
<path fill-rule="evenodd" clip-rule="evenodd" d="M914.086 163.298H782.84V160.387H914.086V163.298Z" fill="black"/>
<path fill-rule="evenodd" clip-rule="evenodd" d="M914.085 192.108H782.839V189.197H914.085V192.108Z" fill="black"/>
<path fill-rule="evenodd" clip-rule="evenodd" d="M895.536 342.453V450.45H867.945L834.869 402.356V450.45H801.308V342.453H829.309L861.975 390.554V342.453H895.536ZM864.886 398.846H864.087L827.767 345.364H804.219V447.539H831.958V393.857H832.557L869.476 447.539H892.625V345.364H864.886V398.846Z" fill="black"/>
<path fill-rule="evenodd" clip-rule="evenodd" d="M914.086 390.991H782.84V388.08H914.086V390.991Z" fill="black"/>
<path fill-rule="evenodd" clip-rule="evenodd" d="M914.085 419.801H782.839V416.89H914.085V419.801Z" fill="black"/>
<path fill-rule="evenodd" clip-rule="evenodd" d="M504.27 0.913818V108.911H476.679L443.603 60.8167V108.911H410.042V0.913818H438.043L470.709 49.015V0.913818H504.27ZM473.62 57.307H472.821L436.501 3.82462H412.953V106H440.692V52.318H441.291L478.21 106H501.359V3.82462H473.62V57.307Z" fill="black"/>
<path fill-rule="evenodd" clip-rule="evenodd" d="M522.821 49.4518H391.575V46.541H522.821V49.4518Z" fill="black"/>
<path fill-rule="evenodd" clip-rule="evenodd" d="M522.82 78.2616H391.574V75.3508H522.82V78.2616Z" fill="black"/>
<path fill-rule="evenodd" clip-rule="evenodd" d="M504.27 457.473V565.47H476.679L443.603 517.376V565.47H410.042V457.473H438.043L470.709 505.574V457.473H504.27ZM473.62 513.866H472.821L436.501 460.384H412.953V562.559H440.692V508.877H441.291L478.21 562.559H501.359V460.384H473.62V513.866Z" fill="black"/>
<path fill-rule="evenodd" clip-rule="evenodd" d="M522.821 506.011H391.575V503.1H522.821V506.011Z" fill="black"/>
<path fill-rule="evenodd" clip-rule="evenodd" d="M522.82 534.821H391.574V531.91H522.82V534.821Z" fill="black"/>
<path fill-rule="evenodd" clip-rule="evenodd" d="M504.27 228.607V336.604H476.679L443.603 288.51V336.604H410.042V228.607H438.043L470.709 276.708V228.607H504.27ZM473.62 285H472.821L436.501 231.517H412.953V333.693H440.692V280.011H441.291L478.21 333.693H501.359V231.517H473.62V285Z" fill="black"/>
<path fill-rule="evenodd" clip-rule="evenodd" d="M522.821 277.145H391.575V274.234H522.821V277.145Z" fill="black"/>
<path fill-rule="evenodd" clip-rule="evenodd" d="M522.82 305.955H391.574V303.044H522.82V305.955Z" fill="black"/>
<path fill-rule="evenodd" clip-rule="evenodd" d="M504.27 114.76V222.757H476.679L443.603 174.663V222.757H410.042V114.76H438.043L470.709 162.861V114.76H504.27ZM473.62 171.153H472.821L436.501 117.671H412.953V219.846H440.692V166.164H441.291L478.21 219.846H501.359V117.671H473.62V171.153Z" fill="black"/>
<path fill-rule="evenodd" clip-rule="evenodd" d="M522.821 163.298H391.575V160.387H522.821V163.298Z" fill="black"/>
<path fill-rule="evenodd" clip-rule="evenodd" d="M522.82 192.108H391.574V189.198H522.82V192.108Z" fill="black"/>
<path fill-rule="evenodd" clip-rule="evenodd" d="M504.27 342.453V450.45H476.679L443.603 402.356V450.45H410.042V342.453H438.043L470.709 390.554V342.453H504.27ZM473.62 398.846H472.821L436.501 345.364H412.953V447.539H440.692V393.857H441.291L478.21 447.539H501.359V345.364H473.62V398.846Z" fill="black"/>
<path fill-rule="evenodd" clip-rule="evenodd" d="M522.821 390.991H391.575V388.08H522.821V390.991Z" fill="black"/>
<path fill-rule="evenodd" clip-rule="evenodd" d="M522.82 419.801H391.574V416.89H522.82V419.801Z" fill="black"/>
<path fill-rule="evenodd" clip-rule="evenodd" d="M1287.11 0.913818V108.911H1259.52L1226.44 60.8167V108.911H1192.88V0.913818H1220.88L1253.55 49.015V0.913818H1287.11ZM1256.46 57.307H1255.66L1219.34 3.82462H1195.79V106H1223.53V52.318H1224.13L1261.05 106H1284.2V3.82462H1256.46V57.307Z" fill="black"/>
<path fill-rule="evenodd" clip-rule="evenodd" d="M1305.66 49.4518H1174.41V46.541H1305.66V49.4518Z" fill="black"/>
<path fill-rule="evenodd" clip-rule="evenodd" d="M1305.66 78.2616H1174.41V75.3508H1305.66V78.2616Z" fill="black"/>
<path fill-rule="evenodd" clip-rule="evenodd" d="M1287.11 457.473V565.47H1259.52L1226.44 517.376V565.47H1192.88V457.473H1220.88L1253.55 505.574V457.473H1287.11ZM1256.46 513.866H1255.66L1219.34 460.384H1195.79V562.559H1223.53V508.877H1224.13L1261.05 562.559H1284.2V460.384H1256.46V513.866Z" fill="black"/>
<path fill-rule="evenodd" clip-rule="evenodd" d="M1305.66 506.011H1174.41V503.1H1305.66V506.011Z" fill="black"/>
<path fill-rule="evenodd" clip-rule="evenodd" d="M1305.66 534.821H1174.41V531.91H1305.66V534.821Z" fill="black"/>
<path fill-rule="evenodd" clip-rule="evenodd" d="M1287.11 228.607V336.604H1259.52L1226.44 288.51V336.604H1192.88V228.607H1220.88L1253.55 276.708V228.607H1287.11ZM1256.46 285H1255.66L1219.34 231.517H1195.79V333.693H1223.53V280.011H1224.13L1261.05 333.693H1284.2V231.517H1256.46V285Z" fill="black"/>
<path fill-rule="evenodd" clip-rule="evenodd" d="M1305.66 277.145H1174.41V274.234H1305.66V277.145Z" fill="black"/>
<path fill-rule="evenodd" clip-rule="evenodd" d="M1305.66 305.955H1174.41V303.044H1305.66V305.955Z" fill="black"/>
<path fill-rule="evenodd" clip-rule="evenodd" d="M1287.11 114.76V222.757H1259.52L1226.44 174.663V222.757H1192.88V114.76H1220.88L1253.55 162.861V114.76H1287.11ZM1256.46 171.153H1255.66L1219.34 117.671H1195.79V219.846H1223.53V166.164H1224.13L1261.05 219.846H1284.2V117.671H1256.46V171.153Z" fill="black"/>
<path fill-rule="evenodd" clip-rule="evenodd" d="M1305.66 163.298H1174.41V160.387H1305.66V163.298Z" fill="black"/>
<path fill-rule="evenodd" clip-rule="evenodd" d="M1305.66 192.108H1174.41V189.198H1305.66V192.108Z" fill="black"/>
<path fill-rule="evenodd" clip-rule="evenodd" d="M1287.11 342.453V450.45H1259.52L1226.44 402.356V450.45H1192.88V342.453H1220.88L1253.55 390.554V342.453H1287.11ZM1256.46 398.846H1255.66L1219.34 345.364H1195.79V447.539H1223.53V393.857H1224.13L1261.05 447.539H1284.2V345.364H1256.46V398.846Z" fill="black"/>
<path fill-rule="evenodd" clip-rule="evenodd" d="M1305.66 390.991H1174.41V388.08H1305.66V390.991Z" fill="black"/>
<path fill-rule="evenodd" clip-rule="evenodd" d="M1305.66 419.801H1174.41V416.89H1305.66V419.801Z" fill="black"/>
<path fill-rule="evenodd" clip-rule="evenodd" d="M244.016 0.913818V108.911H216.425L183.349 60.8167V108.911H149.788V0.913818H177.789L210.455 49.015V0.913818H244.016ZM213.366 57.307H212.568L176.247 3.82462H152.699V106H180.438V52.318H181.037L217.956 106H241.105V3.82462H213.366V57.307Z" fill="black"/>
<path fill-rule="evenodd" clip-rule="evenodd" d="M262.566 49.4518H131.319V46.541H262.566V49.4518Z" fill="black"/>
<path fill-rule="evenodd" clip-rule="evenodd" d="M262.566 78.2616H131.32V75.3508H262.566V78.2616Z" fill="black"/>
<path fill-rule="evenodd" clip-rule="evenodd" d="M244.016 457.473V565.47H216.425L183.349 517.376V565.47H149.788V457.473H177.789L210.455 505.574V457.473H244.016ZM213.366 513.866H212.568L176.247 460.384H152.699V562.559H180.438V508.877H181.037L217.956 562.559H241.105V460.384H213.366V513.866Z" fill="black"/>
<path fill-rule="evenodd" clip-rule="evenodd" d="M262.566 506.011H131.319V503.1H262.566V506.011Z" fill="black"/>
<path fill-rule="evenodd" clip-rule="evenodd" d="M262.566 534.821H131.32V531.91H262.566V534.821Z" fill="black"/>
<path fill-rule="evenodd" clip-rule="evenodd" d="M244.016 228.607V336.604H216.425L183.349 288.51V336.604H149.788V228.607H177.789L210.455 276.708V228.607H244.016ZM213.366 285H212.568L176.247 231.517H152.699V333.693H180.438V280.011H181.037L217.956 333.693H241.105V231.517H213.366V285Z" fill="black"/>
<path fill-rule="evenodd" clip-rule="evenodd" d="M262.566 277.145H131.319V274.234H262.566V277.145Z" fill="black"/>
<path fill-rule="evenodd" clip-rule="evenodd" d="M262.566 305.954H131.32V303.044H262.566V305.954Z" fill="black"/>
<path fill-rule="evenodd" clip-rule="evenodd" d="M244.016 114.76V222.757H216.425L183.349 174.663V222.757H149.788V114.76H177.789L210.455 162.861V114.76H244.016ZM213.366 171.153H212.568L176.247 117.671H152.699V219.846H180.438V166.164H181.037L217.956 219.846H241.105V117.671H213.366V171.153Z" fill="black"/>
<path fill-rule="evenodd" clip-rule="evenodd" d="M262.566 163.298H131.319V160.387H262.566V163.298Z" fill="black"/>
<path fill-rule="evenodd" clip-rule="evenodd" d="M262.566 192.108H131.32V189.197H262.566V192.108Z" fill="black"/>
<path fill-rule="evenodd" clip-rule="evenodd" d="M244.016 342.453V450.45H216.425L183.349 402.356V450.45H149.788V342.453H177.789L210.455 390.554V342.453H244.016ZM213.366 398.846H212.568L176.247 345.364H152.699V447.539H180.438V393.857H181.037L217.956 447.539H241.105V345.364H213.366V398.846Z" fill="black"/>
<path fill-rule="evenodd" clip-rule="evenodd" d="M262.566 390.991H131.319V388.08H262.566V390.991Z" fill="black"/>
<path fill-rule="evenodd" clip-rule="evenodd" d="M262.566 419.801H131.32V416.89H262.566V419.801Z" fill="black"/>
<path fill-rule="evenodd" clip-rule="evenodd" d="M1026.86 0.913818V108.911H999.266L966.19 60.8167V108.911H932.629V0.913818H960.63L993.296 49.015V0.913818H1026.86ZM996.207 57.307H995.408L959.088 3.82462H935.54V106H963.279V52.318H963.878L1000.8 106H1023.95V3.82462H996.207V57.307Z" fill="black"/>
<path fill-rule="evenodd" clip-rule="evenodd" d="M1045.41 49.4518H914.159V46.541H1045.41V49.4518Z" fill="black"/>
<path fill-rule="evenodd" clip-rule="evenodd" d="M1045.41 78.2616H914.16V75.3508H1045.41V78.2616Z" fill="black"/>
<path fill-rule="evenodd" clip-rule="evenodd" d="M1026.86 457.473V565.47H999.266L966.19 517.376V565.47H932.629V457.473H960.63L993.296 505.574V457.473H1026.86ZM996.207 513.866H995.408L959.088 460.384H935.54V562.559H963.279V508.877H963.878L1000.8 562.559H1023.95V460.384H996.207V513.866Z" fill="black"/>
<path fill-rule="evenodd" clip-rule="evenodd" d="M1045.41 506.011H914.159V503.1H1045.41V506.011Z" fill="black"/>
<path fill-rule="evenodd" clip-rule="evenodd" d="M1045.41 534.821H914.16V531.91H1045.41V534.821Z" fill="black"/>
<path fill-rule="evenodd" clip-rule="evenodd" d="M1026.86 228.607V336.604H999.266L966.19 288.51V336.604H932.629V228.607H960.63L993.296 276.708V228.607H1026.86ZM996.207 285H995.408L959.088 231.517H935.54V333.693H963.279V280.011H963.878L1000.8 333.693H1023.95V231.517H996.207V285Z" fill="black"/>
<path fill-rule="evenodd" clip-rule="evenodd" d="M1045.41 277.145H914.159V274.234H1045.41V277.145Z" fill="black"/>
<path fill-rule="evenodd" clip-rule="evenodd" d="M1045.41 305.954H914.16V303.044H1045.41V305.954Z" fill="black"/>
<path fill-rule="evenodd" clip-rule="evenodd" d="M1026.86 114.76V222.757H999.266L966.19 174.663V222.757H932.629V114.76H960.63L993.296 162.861V114.76H1026.86ZM996.207 171.153H995.408L959.088 117.671H935.54V219.846H963.279V166.164H963.878L1000.8 219.846H1023.95V117.671H996.207V171.153Z" fill="black"/>
<path fill-rule="evenodd" clip-rule="evenodd" d="M1045.41 163.298H914.159V160.387H1045.41V163.298Z" fill="black"/>
<path fill-rule="evenodd" clip-rule="evenodd" d="M1045.41 192.108H914.16V189.197H1045.41V192.108Z" fill="black"/>
<path fill-rule="evenodd" clip-rule="evenodd" d="M1026.86 342.453V450.45H999.266L966.19 402.356V450.45H932.629V342.453H960.63L993.296 390.554V342.453H1026.86ZM996.207 398.846H995.408L959.088 345.364H935.54V447.539H963.279V393.857H963.878L1000.8 447.539H1023.95V345.364H996.207V398.846Z" fill="black"/>
<path fill-rule="evenodd" clip-rule="evenodd" d="M1045.41 390.991H914.159V388.08H1045.41V390.991Z" fill="black"/>
<path fill-rule="evenodd" clip-rule="evenodd" d="M1045.41 419.801H914.16V416.89H1045.41V419.801Z" fill="black"/>
<path fill-rule="evenodd" clip-rule="evenodd" d="M635.589 0.913818V108.911H607.998L574.923 60.8167V108.911H541.362V0.913818H569.363L602.029 49.015V0.913818H635.589ZM604.939 57.307H604.141L567.821 3.82462H544.273V106H572.012V52.318H572.611L609.529 106H632.678V3.82462H604.939V57.307Z" fill="black"/>
<path fill-rule="evenodd" clip-rule="evenodd" d="M654.141 49.4518H522.894V46.541H654.141V49.4518Z" fill="black"/>
<path fill-rule="evenodd" clip-rule="evenodd" d="M654.139 78.2616H522.893V75.3508H654.139V78.2616Z" fill="black"/>
<path fill-rule="evenodd" clip-rule="evenodd" d="M635.589 457.473V565.47H607.998L574.923 517.376V565.47H541.362V457.473H569.363L602.029 505.574V457.473H635.589ZM604.939 513.866H604.141L567.821 460.384H544.273V562.559H572.012V508.877H572.611L609.529 562.559H632.678V460.384H604.939V513.866Z" fill="black"/>
<path fill-rule="evenodd" clip-rule="evenodd" d="M654.141 506.011H522.894V503.1H654.141V506.011Z" fill="black"/>
<path fill-rule="evenodd" clip-rule="evenodd" d="M654.139 534.821H522.893V531.91H654.139V534.821Z" fill="black"/>
<path fill-rule="evenodd" clip-rule="evenodd" d="M635.589 228.607V336.604H607.998L574.923 288.51V336.604H541.362V228.607H569.363L602.029 276.708V228.607H635.589ZM604.939 285H604.141L567.821 231.517H544.273V333.693H572.012V280.011H572.611L609.529 333.693H632.678V231.517H604.939V285Z" fill="black"/>
<path fill-rule="evenodd" clip-rule="evenodd" d="M654.141 277.145H522.894V274.234H654.141V277.145Z" fill="black"/>
<path fill-rule="evenodd" clip-rule="evenodd" d="M654.139 305.954H522.893V303.044H654.139V305.954Z" fill="black"/>
<path fill-rule="evenodd" clip-rule="evenodd" d="M635.589 114.76V222.757H607.998L574.923 174.663V222.757H541.362V114.76H569.363L602.029 162.861V114.76H635.589ZM604.939 171.153H604.141L567.821 117.671H544.273V219.846H572.012V166.164H572.611L609.529 219.846H632.678V117.671H604.939V171.153Z" fill="black"/>
<path fill-rule="evenodd" clip-rule="evenodd" d="M654.141 163.298H522.894V160.387H654.141V163.298Z" fill="black"/>
<path fill-rule="evenodd" clip-rule="evenodd" d="M654.139 192.108H522.893V189.198H654.139V192.108Z" fill="black"/>
<path fill-rule="evenodd" clip-rule="evenodd" d="M635.589 342.453V450.45H607.998L574.923 402.356V450.45H541.362V342.453H569.363L602.029 390.554V342.453H635.589ZM604.939 398.846H604.141L567.821 345.364H544.273V447.539H572.012V393.857H572.611L609.529 447.539H632.678V345.364H604.939V398.846Z" fill="black"/>
<path fill-rule="evenodd" clip-rule="evenodd" d="M654.141 390.991H522.894V388.08H654.141V390.991Z" fill="black"/>
<path fill-rule="evenodd" clip-rule="evenodd" d="M654.139 419.801H522.893V416.89H654.139V419.801Z" fill="black"/>
<path fill-rule="evenodd" clip-rule="evenodd" d="M1418.43 0.913818V108.911H1390.84L1357.76 60.8167V108.911H1324.2V0.913818H1352.2L1384.87 49.015V0.913818H1418.43ZM1387.78 57.307H1386.98L1350.66 3.82462H1327.11V106H1354.85V52.318H1355.45L1392.37 106H1415.52V3.82462H1387.78V57.307Z" fill="black"/>
<path fill-rule="evenodd" clip-rule="evenodd" d="M1436.98 49.4518H1305.73V46.541H1436.98V49.4518Z" fill="black"/>
<path fill-rule="evenodd" clip-rule="evenodd" d="M1436.98 78.2619H1305.73V75.3511H1436.98V78.2619Z" fill="black"/>
<path fill-rule="evenodd" clip-rule="evenodd" d="M1418.43 457.473V565.47H1390.84L1357.76 517.376V565.47H1324.2V457.473H1352.2L1384.87 505.574V457.473H1418.43ZM1387.78 513.866H1386.98L1350.66 460.384H1327.11V562.559H1354.85V508.877H1355.45L1392.37 562.559H1415.52V460.384H1387.78V513.866Z" fill="black"/>
<path fill-rule="evenodd" clip-rule="evenodd" d="M1436.98 506.011H1305.73V503.1H1436.98V506.011Z" fill="black"/>
<path fill-rule="evenodd" clip-rule="evenodd" d="M1436.98 534.821H1305.73V531.91H1436.98V534.821Z" fill="black"/>
<path fill-rule="evenodd" clip-rule="evenodd" d="M1418.43 228.607V336.604H1390.84L1357.76 288.51V336.604H1324.2V228.607H1352.2L1384.87 276.708V228.607H1418.43ZM1387.78 285H1386.98L1350.66 231.517H1327.11V333.693H1354.85V280.011H1355.45L1392.37 333.693H1415.52V231.517H1387.78V285Z" fill="black"/>
<path fill-rule="evenodd" clip-rule="evenodd" d="M1436.98 277.145H1305.73V274.234H1436.98V277.145Z" fill="black"/>
<path fill-rule="evenodd" clip-rule="evenodd" d="M1436.98 305.954H1305.73V303.044H1436.98V305.954Z" fill="black"/>
<path fill-rule="evenodd" clip-rule="evenodd" d="M1418.43 114.76V222.757H1390.84L1357.76 174.663V222.757H1324.2V114.76H1352.2L1384.87 162.861V114.76H1418.43ZM1387.78 171.153H1386.98L1350.66 117.671H1327.11V219.846H1354.85V166.164H1355.45L1392.37 219.846H1415.52V117.671H1387.78V171.153Z" fill="black"/>
<path fill-rule="evenodd" clip-rule="evenodd" d="M1436.98 163.298H1305.73V160.387H1436.98V163.298Z" fill="black"/>
<path fill-rule="evenodd" clip-rule="evenodd" d="M1436.98 192.108H1305.73V189.197H1436.98V192.108Z" fill="black"/>
<path fill-rule="evenodd" clip-rule="evenodd" d="M1418.43 342.453V450.45H1390.84L1357.76 402.356V450.45H1324.2V342.453H1352.2L1384.87 390.554V342.453H1418.43ZM1387.78 398.846H1386.98L1350.66 345.364H1327.11V447.539H1354.85V393.857H1355.45L1392.37 447.539H1415.52V345.364H1387.78V398.846Z" fill="black"/>
<path fill-rule="evenodd" clip-rule="evenodd" d="M1436.98 390.991H1305.73V388.08H1436.98V390.991Z" fill="black"/>
<path fill-rule="evenodd" clip-rule="evenodd" d="M1436.98 419.801H1305.73V416.89H1436.98V419.801Z" fill="black"/>
<path fill-rule="evenodd" clip-rule="evenodd" d="M372.95 0.913818V108.911H345.359L312.283 60.8167V108.911H278.723V0.913818H306.724L339.389 49.015V0.913818H372.95ZM342.3 57.307H341.502L305.182 3.82462H281.634V106H309.373V52.318H309.971L346.89 106H370.039V3.82462H342.3V57.307Z" fill="black"/>
<path fill-rule="evenodd" clip-rule="evenodd" d="M391.499 49.4518H260.252V46.541H391.499V49.4518Z" fill="black"/>
<path fill-rule="evenodd" clip-rule="evenodd" d="M391.501 78.2616H260.255V75.3508H391.501V78.2616Z" fill="black"/>
<path fill-rule="evenodd" clip-rule="evenodd" d="M372.95 457.473V565.47H345.359L312.283 517.376V565.47H278.723V457.473H306.724L339.389 505.574V457.473H372.95ZM342.3 513.866H341.502L305.182 460.384H281.634V562.559H309.373V508.877H309.971L346.89 562.559H370.039V460.384H342.3V513.866Z" fill="black"/>
<path fill-rule="evenodd" clip-rule="evenodd" d="M391.499 506.011H260.252V503.1H391.499V506.011Z" fill="black"/>
<path fill-rule="evenodd" clip-rule="evenodd" d="M391.501 534.821H260.255V531.91H391.501V534.821Z" fill="black"/>
<path fill-rule="evenodd" clip-rule="evenodd" d="M372.95 228.607V336.604H345.359L312.283 288.51V336.604H278.723V228.607H306.724L339.389 276.708V228.607H372.95ZM342.3 285H341.502L305.182 231.517H281.634V333.693H309.373V280.011H309.971L346.89 333.693H370.039V231.517H342.3V285Z" fill="black"/>
<path fill-rule="evenodd" clip-rule="evenodd" d="M391.499 277.145H260.252V274.234H391.499V277.145Z" fill="black"/>
<path fill-rule="evenodd" clip-rule="evenodd" d="M391.501 305.954H260.255V303.044H391.501V305.954Z" fill="black"/>
<path fill-rule="evenodd" clip-rule="evenodd" d="M372.95 114.76V222.757H345.359L312.283 174.663V222.757H278.723V114.76H306.724L339.389 162.861V114.76H372.95ZM342.3 171.153H341.502L305.182 117.671H281.634V219.846H309.373V166.164H309.971L346.89 219.846H370.039V117.671H342.3V171.153Z" fill="black"/>
<path fill-rule="evenodd" clip-rule="evenodd" d="M391.499 163.298H260.252V160.387H391.499V163.298Z" fill="black"/>
<path fill-rule="evenodd" clip-rule="evenodd" d="M391.501 192.108H260.255V189.197H391.501V192.108Z" fill="black"/>
<path fill-rule="evenodd" clip-rule="evenodd" d="M372.95 342.453V450.45H345.359L312.283 402.356V450.45H278.723V342.453H306.724L339.389 390.554V342.453H372.95ZM342.3 398.846H341.502L305.182 345.364H281.634V447.539H309.373V393.857H309.971L346.89 447.539H370.039V345.364H342.3V398.846Z" fill="black"/>
<path fill-rule="evenodd" clip-rule="evenodd" d="M391.499 390.991H260.252V388.08H391.499V390.991Z" fill="black"/>
<path fill-rule="evenodd" clip-rule="evenodd" d="M391.501 419.801H260.255V416.89H391.501V419.801Z" fill="black"/>
<path fill-rule="evenodd" clip-rule="evenodd" d="M1155.79 0.913818V108.911H1128.2L1095.12 60.8167V108.911H1061.56V0.913818H1089.56L1122.23 49.015V0.913818H1155.79ZM1125.14 57.307H1124.34L1088.02 3.82462H1064.47V106H1092.21V52.318H1092.81L1129.73 106H1152.88V3.82462H1125.14V57.307Z" fill="black"/>
<path fill-rule="evenodd" clip-rule="evenodd" d="M1174.34 49.4518H1043.09V46.541H1174.34V49.4518Z" fill="black"/>
<path fill-rule="evenodd" clip-rule="evenodd" d="M1174.34 78.2616H1043.09V75.3508H1174.34V78.2616Z" fill="black"/>
<path fill-rule="evenodd" clip-rule="evenodd" d="M1155.79 457.473V565.47H1128.2L1095.12 517.376V565.47H1061.56V457.473H1089.56L1122.23 505.574V457.473H1155.79ZM1125.14 513.866H1124.34L1088.02 460.384H1064.47V562.559H1092.21V508.877H1092.81L1129.73 562.559H1152.88V460.384H1125.14V513.866Z" fill="black"/>
<path fill-rule="evenodd" clip-rule="evenodd" d="M1174.34 506.011H1043.09V503.1H1174.34V506.011Z" fill="black"/>
<path fill-rule="evenodd" clip-rule="evenodd" d="M1174.34 534.821H1043.09V531.91H1174.34V534.821Z" fill="black"/>
<path fill-rule="evenodd" clip-rule="evenodd" d="M1155.79 228.607V336.604H1128.2L1095.12 288.51V336.604H1061.56V228.607H1089.56L1122.23 276.708V228.607H1155.79ZM1125.14 285H1124.34L1088.02 231.517H1064.47V333.693H1092.21V280.011H1092.81L1129.73 333.693H1152.88V231.517H1125.14V285Z" fill="black"/>
<path fill-rule="evenodd" clip-rule="evenodd" d="M1174.34 277.145H1043.09V274.234H1174.34V277.145Z" fill="black"/>
<path fill-rule="evenodd" clip-rule="evenodd" d="M1174.34 305.954H1043.09V303.044H1174.34V305.954Z" fill="black"/>
<path fill-rule="evenodd" clip-rule="evenodd" d="M1155.79 114.76V222.757H1128.2L1095.12 174.663V222.757H1061.56V114.76H1089.56L1122.23 162.861V114.76H1155.79ZM1125.14 171.153H1124.34L1088.02 117.671H1064.47V219.846H1092.21V166.164H1092.81L1129.73 219.846H1152.88V117.671H1125.14V171.153Z" fill="black"/>
<path fill-rule="evenodd" clip-rule="evenodd" d="M1174.34 163.298H1043.09V160.387H1174.34V163.298Z" fill="black"/>
<path fill-rule="evenodd" clip-rule="evenodd" d="M1174.34 192.108H1043.09V189.197H1174.34V192.108Z" fill="black"/>
<path fill-rule="evenodd" clip-rule="evenodd" d="M1155.79 342.453V450.45H1128.2L1095.12 402.356V450.45H1061.56V342.453H1089.56L1122.23 390.554V342.453H1155.79ZM1125.14 398.846H1124.34L1088.02 345.364H1064.47V447.539H1092.21V393.857H1092.81L1129.73 447.539H1152.88V345.364H1125.14V398.846Z" fill="black"/>
<path fill-rule="evenodd" clip-rule="evenodd" d="M1174.34 390.991H1043.09V388.08H1174.34V390.991Z" fill="black"/>
<path fill-rule="evenodd" clip-rule="evenodd" d="M1174.34 419.801H1043.09V416.89H1174.34V419.801Z" fill="black"/>
<path fill-rule="evenodd" clip-rule="evenodd" d="M764.522 0.913818V108.911H736.931L703.856 60.8167V108.911H670.295V0.913818H698.296L730.962 49.015V0.913818H764.522ZM733.872 57.307H733.074L696.754 3.82462H673.206V106H700.945V52.318H701.544L738.462 106H761.611V3.82462H733.872V57.307Z" fill="black"/>
<path fill-rule="evenodd" clip-rule="evenodd" d="M783.073 49.4518H651.827V46.541H783.073V49.4518Z" fill="black"/>
<path fill-rule="evenodd" clip-rule="evenodd" d="M783.073 78.2616H651.826V75.3508H783.073V78.2616Z" fill="black"/>
<path fill-rule="evenodd" clip-rule="evenodd" d="M764.522 457.473V565.47H736.931L703.856 517.376V565.47H670.295V457.473H698.296L730.962 505.574V457.473H764.522ZM733.872 513.866H733.074L696.754 460.384H673.206V562.559H700.945V508.877H701.544L738.462 562.559H761.611V460.384H733.872V513.866Z" fill="black"/>
<path fill-rule="evenodd" clip-rule="evenodd" d="M783.073 506.011H651.827V503.1H783.073V506.011Z" fill="black"/>
<path fill-rule="evenodd" clip-rule="evenodd" d="M783.073 534.821H651.826V531.91H783.073V534.821Z" fill="black"/>
<path fill-rule="evenodd" clip-rule="evenodd" d="M764.522 228.607V336.604H736.931L703.856 288.51V336.604H670.295V228.607H698.296L730.962 276.708V228.607H764.522ZM733.872 285H733.074L696.754 231.517H673.206V333.693H700.945V280.011H701.544L738.462 333.693H761.611V231.517H733.872V285Z" fill="black"/>
<path fill-rule="evenodd" clip-rule="evenodd" d="M783.073 277.145H651.827V274.234H783.073V277.145Z" fill="black"/>
<path fill-rule="evenodd" clip-rule="evenodd" d="M783.073 305.954H651.826V303.044H783.073V305.954Z" fill="black"/>
<path fill-rule="evenodd" clip-rule="evenodd" d="M764.522 114.76V222.757H736.931L703.856 174.663V222.757H670.295V114.76H698.296L730.962 162.861V114.76H764.522ZM733.872 171.153H733.074L696.754 117.671H673.206V219.846H700.945V166.164H701.544L738.462 219.846H761.611V117.671H733.872V171.153Z" fill="black"/>
<path fill-rule="evenodd" clip-rule="evenodd" d="M783.073 163.298H651.827V160.387H783.073V163.298Z" fill="black"/>
<path fill-rule="evenodd" clip-rule="evenodd" d="M783.073 192.108H651.826V189.197H783.073V192.108Z" fill="black"/>
<path fill-rule="evenodd" clip-rule="evenodd" d="M764.522 342.453V450.45H736.931L703.856 402.356V450.45H670.295V342.453H698.296L730.962 390.554V342.453H764.522ZM733.872 398.846H733.074L696.754 345.364H673.206V447.539H700.945V393.857H701.544L738.462 447.539H761.611V345.364H733.872V398.846Z" fill="black"/>
<path fill-rule="evenodd" clip-rule="evenodd" d="M783.073 390.991H651.827V388.08H783.073V390.991Z" fill="black"/>
<path fill-rule="evenodd" clip-rule="evenodd" d="M783.073 419.801H651.826V416.89H783.073V419.801Z" fill="black"/>
<path fill-rule="evenodd" clip-rule="evenodd" d="M1547.36 0.913818V108.911H1519.77L1486.7 60.8167V108.911H1453.14V0.913818H1481.14L1513.8 49.015V0.913818H1547.36ZM1516.71 57.307H1515.92L1479.6 3.82462H1456.05V106H1483.79V52.318H1484.39L1521.3 106H1544.45V3.82462H1516.71V57.307Z" fill="black"/>
<path fill-rule="evenodd" clip-rule="evenodd" d="M1565.91 49.4518H1434.67V46.541H1565.91V49.4518Z" fill="black"/>
<path fill-rule="evenodd" clip-rule="evenodd" d="M1565.91 78.2616H1434.67V75.3508H1565.91V78.2616Z" fill="black"/>
<path fill-rule="evenodd" clip-rule="evenodd" d="M1547.36 457.473V565.47H1519.77L1486.7 517.376V565.47H1453.14V457.473H1481.14L1513.8 505.574V457.473H1547.36ZM1516.71 513.866H1515.92L1479.6 460.384H1456.05V562.559H1483.79V508.877H1484.39L1521.3 562.559H1544.45V460.384H1516.71V513.866Z" fill="black"/>
<path fill-rule="evenodd" clip-rule="evenodd" d="M1565.91 506.011H1434.67V503.1H1565.91V506.011Z" fill="black"/>
<path fill-rule="evenodd" clip-rule="evenodd" d="M1565.91 534.821H1434.67V531.91H1565.91V534.821Z" fill="black"/>
<path fill-rule="evenodd" clip-rule="evenodd" d="M1547.36 228.607V336.604H1519.77L1486.7 288.51V336.604H1453.14V228.607H1481.14L1513.8 276.708V228.607H1547.36ZM1516.71 285H1515.92L1479.6 231.517H1456.05V333.693H1483.79V280.011H1484.39L1521.3 333.693H1544.45V231.517H1516.71V285Z" fill="black"/>
<path fill-rule="evenodd" clip-rule="evenodd" d="M1565.91 277.145H1434.67V274.234H1565.91V277.145Z" fill="black"/>
<path fill-rule="evenodd" clip-rule="evenodd" d="M1565.91 305.954H1434.67V303.044H1565.91V305.954Z" fill="black"/>
<path fill-rule="evenodd" clip-rule="evenodd" d="M1547.36 114.76V222.757H1519.77L1486.7 174.663V222.757H1453.14V114.76H1481.14L1513.8 162.861V114.76H1547.36ZM1516.71 171.153H1515.92L1479.6 117.671H1456.05V219.846H1483.79V166.164H1484.39L1521.3 219.846H1544.45V117.671H1516.71V171.153Z" fill="black"/>
<path fill-rule="evenodd" clip-rule="evenodd" d="M1565.91 163.298H1434.67V160.387H1565.91V163.298Z" fill="black"/>
<path fill-rule="evenodd" clip-rule="evenodd" d="M1565.91 192.108H1434.67V189.197H1565.91V192.108Z" fill="black"/>
<path fill-rule="evenodd" clip-rule="evenodd" d="M1547.36 342.453V450.45H1519.77L1486.7 402.356V450.45H1453.14V342.453H1481.14L1513.8 390.554V342.453H1547.36ZM1516.71 398.846H1515.92L1479.6 345.364H1456.05V447.539H1483.79V393.857H1484.39L1521.3 447.539H1544.45V345.364H1516.71V398.846Z" fill="black"/>
<path fill-rule="evenodd" clip-rule="evenodd" d="M1565.91 390.991H1434.67V388.08H1565.91V390.991Z" fill="black"/>
<path fill-rule="evenodd" clip-rule="evenodd" d="M1565.91 419.801H1434.67V416.89H1565.91V419.801Z" fill="black"/>
</g>
</svg>
